<mxfile host="app.diagrams.net" agent="Mozilla/5.0 (X11; Linux x86_64) AppleWebKit/537.36 (KHTML, like Gecko) Chrome/129.0.0.0 Safari/537.36" version="24.7.10">
  <diagram name="Page-1" id="2mfujRQ8ujW3WOwr63oN">
    <mxGraphModel dx="1393" dy="1860" grid="1" gridSize="10" guides="1" tooltips="1" connect="1" arrows="1" fold="1" page="1" pageScale="1" pageWidth="850" pageHeight="1100" math="0" shadow="0">
      <root>
        <mxCell id="0" />
        <mxCell id="1" parent="0" />
        <mxCell id="xYmd4zmC7gIF_sMqIQMN-3" value="AWS Cloud" style="points=[[0,0],[0.25,0],[0.5,0],[0.75,0],[1,0],[1,0.25],[1,0.5],[1,0.75],[1,1],[0.75,1],[0.5,1],[0.25,1],[0,1],[0,0.75],[0,0.5],[0,0.25]];outlineConnect=0;gradientColor=none;html=1;whiteSpace=wrap;fontSize=12;fontStyle=0;container=1;pointerEvents=0;collapsible=0;recursiveResize=0;shape=mxgraph.aws4.group;grIcon=mxgraph.aws4.group_aws_cloud_alt;strokeColor=#232F3E;fillColor=none;verticalAlign=top;align=left;spacingLeft=30;fontColor=#232F3E;dashed=0;" parent="1" vertex="1">
          <mxGeometry x="40" y="-959" width="760" height="520" as="geometry" />
        </mxCell>
        <mxCell id="xYmd4zmC7gIF_sMqIQMN-4" value="ap-southeast-1" style="points=[[0,0],[0.25,0],[0.5,0],[0.75,0],[1,0],[1,0.25],[1,0.5],[1,0.75],[1,1],[0.75,1],[0.5,1],[0.25,1],[0,1],[0,0.75],[0,0.5],[0,0.25]];outlineConnect=0;gradientColor=none;html=1;whiteSpace=wrap;fontSize=12;fontStyle=0;container=1;pointerEvents=0;collapsible=0;recursiveResize=0;shape=mxgraph.aws4.group;grIcon=mxgraph.aws4.group_region;strokeColor=#00A4A6;fillColor=none;verticalAlign=top;align=left;spacingLeft=30;fontColor=#147EBA;dashed=1;" parent="1" vertex="1">
          <mxGeometry x="80" y="-919" width="680" height="440" as="geometry" />
        </mxCell>
        <mxCell id="xYmd4zmC7gIF_sMqIQMN-5" value="&lt;span style=&quot;color: rgb(213, 219, 219); font-family: &amp;quot;Amazon Ember&amp;quot;, &amp;quot;Helvetica Neue&amp;quot;, Roboto, Arial, sans-serif; font-size: 14px; background-color: rgb(42, 46, 51);&quot;&gt;vpc-01c6c56dcb21c82c6&lt;/span&gt;" style="points=[[0,0],[0.25,0],[0.5,0],[0.75,0],[1,0],[1,0.25],[1,0.5],[1,0.75],[1,1],[0.75,1],[0.5,1],[0.25,1],[0,1],[0,0.75],[0,0.5],[0,0.25]];outlineConnect=0;gradientColor=none;html=1;whiteSpace=wrap;fontSize=12;fontStyle=0;container=1;pointerEvents=0;collapsible=0;recursiveResize=0;shape=mxgraph.aws4.group;grIcon=mxgraph.aws4.group_vpc2;strokeColor=#8C4FFF;fillColor=none;verticalAlign=top;align=left;spacingLeft=30;fontColor=#AAB7B8;dashed=0;" parent="1" vertex="1">
          <mxGeometry x="120" y="-879" width="600" height="360" as="geometry" />
        </mxCell>
        <mxCell id="xYmd4zmC7gIF_sMqIQMN-7" value="ap-southeast-1b" style="fillColor=none;strokeColor=#147EBA;dashed=1;verticalAlign=top;fontStyle=0;fontColor=#147EBA;whiteSpace=wrap;html=1;" parent="xYmd4zmC7gIF_sMqIQMN-5" vertex="1">
          <mxGeometry x="225" y="40" width="160" height="280" as="geometry" />
        </mxCell>
        <mxCell id="xYmd4zmC7gIF_sMqIQMN-11" value="ap-southeast-1c" style="fillColor=none;strokeColor=#147EBA;dashed=1;verticalAlign=top;fontStyle=0;fontColor=#147EBA;whiteSpace=wrap;html=1;" parent="xYmd4zmC7gIF_sMqIQMN-5" vertex="1">
          <mxGeometry x="420" y="40" width="160" height="280" as="geometry" />
        </mxCell>
        <mxCell id="xYmd4zmC7gIF_sMqIQMN-21" value="172.31.16.0/20" style="points=[[0,0],[0.25,0],[0.5,0],[0.75,0],[1,0],[1,0.25],[1,0.5],[1,0.75],[1,1],[0.75,1],[0.5,1],[0.25,1],[0,1],[0,0.75],[0,0.5],[0,0.25]];outlineConnect=0;gradientColor=none;html=1;whiteSpace=wrap;fontSize=12;fontStyle=0;container=1;pointerEvents=0;collapsible=0;recursiveResize=0;shape=mxgraph.aws4.group;grIcon=mxgraph.aws4.group_security_group;grStroke=0;strokeColor=#00A4A6;fillColor=#E6F6F7;verticalAlign=top;align=left;spacingLeft=30;fontColor=#147EBA;dashed=0;" parent="xYmd4zmC7gIF_sMqIQMN-5" vertex="1">
          <mxGeometry x="48" y="80" width="132" height="140" as="geometry" />
        </mxCell>
        <mxCell id="xYmd4zmC7gIF_sMqIQMN-6" value="ap-southeast-1a" style="fillColor=none;strokeColor=#147EBA;dashed=1;verticalAlign=top;fontStyle=0;fontColor=#147EBA;whiteSpace=wrap;html=1;" parent="xYmd4zmC7gIF_sMqIQMN-21" vertex="1">
          <mxGeometry x="-15" y="-40" width="160" height="280" as="geometry" />
        </mxCell>
        <mxCell id="xYmd4zmC7gIF_sMqIQMN-25" value="172.31.32.0/20" style="points=[[0,0],[0.25,0],[0.5,0],[0.75,0],[1,0],[1,0.25],[1,0.5],[1,0.75],[1,1],[0.75,1],[0.5,1],[0.25,1],[0,1],[0,0.75],[0,0.5],[0,0.25]];outlineConnect=0;gradientColor=none;html=1;whiteSpace=wrap;fontSize=12;fontStyle=0;container=1;pointerEvents=0;collapsible=0;recursiveResize=0;shape=mxgraph.aws4.group;grIcon=mxgraph.aws4.group_security_group;grStroke=0;strokeColor=#00A4A6;fillColor=#E6F6F7;verticalAlign=top;align=left;spacingLeft=30;fontColor=#147EBA;dashed=0;" parent="xYmd4zmC7gIF_sMqIQMN-5" vertex="1">
          <mxGeometry x="240" y="80" width="130" height="140" as="geometry" />
        </mxCell>
        <mxCell id="xYmd4zmC7gIF_sMqIQMN-27" value="172.31.0.0/20" style="points=[[0,0],[0.25,0],[0.5,0],[0.75,0],[1,0],[1,0.25],[1,0.5],[1,0.75],[1,1],[0.75,1],[0.5,1],[0.25,1],[0,1],[0,0.75],[0,0.5],[0,0.25]];outlineConnect=0;gradientColor=none;html=1;whiteSpace=wrap;fontSize=12;fontStyle=0;container=1;pointerEvents=0;collapsible=0;recursiveResize=0;shape=mxgraph.aws4.group;grIcon=mxgraph.aws4.group_security_group;grStroke=0;strokeColor=#00A4A6;fillColor=#E6F6F7;verticalAlign=top;align=left;spacingLeft=30;fontColor=#147EBA;dashed=0;" parent="xYmd4zmC7gIF_sMqIQMN-5" vertex="1">
          <mxGeometry x="435" y="80" width="130" height="140" as="geometry" />
        </mxCell>
        <mxCell id="xYmd4zmC7gIF_sMqIQMN-38" value="" style="sketch=0;outlineConnect=0;fontColor=#232F3E;gradientColor=none;fillColor=#8C4FFF;strokeColor=none;dashed=0;verticalLabelPosition=bottom;verticalAlign=top;align=center;html=1;fontSize=12;fontStyle=0;aspect=fixed;pointerEvents=1;shape=mxgraph.aws4.internet_gateway;" parent="xYmd4zmC7gIF_sMqIQMN-5" vertex="1">
          <mxGeometry x="270" y="-31" width="60" height="60" as="geometry" />
        </mxCell>
        <mxCell id="xYmd4zmC7gIF_sMqIQMN-28" value="Destination" style="rounded=0;whiteSpace=wrap;html=1;" parent="1" vertex="1">
          <mxGeometry x="260" y="-382" width="158" height="40" as="geometry" />
        </mxCell>
        <mxCell id="xYmd4zmC7gIF_sMqIQMN-29" value="Target" style="rounded=0;whiteSpace=wrap;html=1;" parent="1" vertex="1">
          <mxGeometry x="418" y="-382" width="162" height="40" as="geometry" />
        </mxCell>
        <mxCell id="xYmd4zmC7gIF_sMqIQMN-30" value="0.0.0.0/0" style="rounded=0;whiteSpace=wrap;html=1;" parent="1" vertex="1">
          <mxGeometry x="260" y="-342" width="158" height="40" as="geometry" />
        </mxCell>
        <mxCell id="xYmd4zmC7gIF_sMqIQMN-31" value="IGW" style="rounded=0;whiteSpace=wrap;html=1;" parent="1" vertex="1">
          <mxGeometry x="418" y="-342" width="162" height="40" as="geometry" />
        </mxCell>
        <mxCell id="xYmd4zmC7gIF_sMqIQMN-32" value="&lt;span style=&quot;color: rgb(213, 219, 219); font-family: &amp;quot;Amazon Ember&amp;quot;, &amp;quot;Helvetica Neue&amp;quot;, Roboto, Arial, sans-serif; font-size: 14px; font-style: normal; font-variant-ligatures: normal; font-variant-caps: normal; font-weight: 400; letter-spacing: normal; orphans: 2; text-align: start; text-indent: 0px; text-transform: none; widows: 2; word-spacing: 0px; -webkit-text-stroke-width: 0px; white-space: nowrap; background-color: rgb(42, 46, 51); text-decoration-thickness: initial; text-decoration-style: initial; text-decoration-color: initial; display: inline !important; float: none;&quot;&gt;172.31.0.0/16&lt;/span&gt;" style="rounded=0;whiteSpace=wrap;html=1;" parent="1" vertex="1">
          <mxGeometry x="260" y="-302" width="158" height="40" as="geometry" />
        </mxCell>
        <mxCell id="xYmd4zmC7gIF_sMqIQMN-33" value="LOCAL" style="rounded=0;whiteSpace=wrap;html=1;" parent="1" vertex="1">
          <mxGeometry x="418" y="-302" width="162" height="40" as="geometry" />
        </mxCell>
        <mxCell id="xYmd4zmC7gIF_sMqIQMN-35" value="" style="endArrow=none;html=1;rounded=0;" parent="1" edge="1">
          <mxGeometry width="50" height="50" relative="1" as="geometry">
            <mxPoint x="418" y="-410" as="sourcePoint" />
            <mxPoint x="418" y="-519" as="targetPoint" />
          </mxGeometry>
        </mxCell>
        <mxCell id="xYmd4zmC7gIF_sMqIQMN-36" value="Main Route Table" style="text;html=1;align=center;verticalAlign=middle;resizable=0;points=[];autosize=1;strokeColor=none;fillColor=none;" parent="1" vertex="1">
          <mxGeometry x="360" y="-412" width="110" height="30" as="geometry" />
        </mxCell>
        <mxCell id="xYmd4zmC7gIF_sMqIQMN-39" value="" style="outlineConnect=0;dashed=0;verticalLabelPosition=bottom;verticalAlign=top;align=center;html=1;shape=mxgraph.aws3.internet;fillColor=#D2D3D3;gradientColor=none;" parent="1" vertex="1">
          <mxGeometry x="370.5" y="-1100" width="79.5" height="60" as="geometry" />
        </mxCell>
        <mxCell id="xYmd4zmC7gIF_sMqIQMN-40" value="" style="endArrow=none;html=1;rounded=0;entryX=0.626;entryY=1;entryDx=0;entryDy=0;entryPerimeter=0;" parent="1" source="xYmd4zmC7gIF_sMqIQMN-38" target="xYmd4zmC7gIF_sMqIQMN-39" edge="1">
          <mxGeometry width="50" height="50" relative="1" as="geometry">
            <mxPoint x="400" y="-950" as="sourcePoint" />
            <mxPoint x="450" y="-1000" as="targetPoint" />
          </mxGeometry>
        </mxCell>
      </root>
    </mxGraphModel>
  </diagram>
</mxfile>
